<?xml version="1.0" encoding="UTF-8"?>
<svg width="512px" height="512px" viewBox="0 0 512 512" version="1.1" xmlns="http://www.w3.org/2000/svg" xmlns:xlink="http://www.w3.org/1999/xlink">
    <title>Logo</title>
    <g id="Logo" stroke="none" stroke-width="1" fill="none" fill-rule="evenodd">
        <g id="彩虹" transform="translate(242.040896, 215.364411) rotate(-20.000000) translate(-242.040896, -215.364411) translate(33.746338, 29.922699)" fill-rule="nonzero">
            <path d="M235.961445,120.898449 L202.689894,113.861917 L166.73899,119.830621 C166.73899,119.830621 139.943168,126.745432 138.798077,130.000281 C137.652986,133.255131 102.93407,176.94112 102.93407,176.94112 L90.9861768,219.413132 L97.138604,244.114321 L112.641238,297.181758 L137.290585,288.210129 L122.482268,225.528585 L125.998271,189.683709 C125.998271,189.683709 141.247213,166.639173 142.48155,166.189911 C143.715888,165.740649 172.399112,147.25255 172.399112,147.25255 L195.730922,144.902558 L234.208254,149.366592 L256.566037,165.289084 L286.284178,219.705825 L289.18891,232.92366 L312.566515,224.414908 L289.327411,160.565993 L235.961445,120.898449 Z" id="路径" fill="#5D9CEC" transform="translate(201.776346, 205.521838) rotate(20.000000) translate(-201.776346, -205.521838) "></path>
            <path d="M295.808788,123.879761 L246.632086,94.2091677 L209.806451,86.1364575 L160.233006,94.9453978 L135.845488,103.821728 L110.009106,123.730499 L79.0301948,164.657382 L69.079573,210.638372 L80.9562006,272.480797 L88.5264072,307.594646 L111.904012,299.085893 L105.8759,269.256346 L94.0407944,232.899083 L96.2283941,212.956476 L106.018121,174.91287 L116.680926,156.841574 L132.047579,140.870551 L160.065227,125.674568 C160.065227,125.674568 186.330104,117.300994 188.36368,117.069144 C190.397256,116.837294 224.666346,116.140239 224.666346,116.140239 L266.388347,133.359507 L282.200539,152.130351 L292.566027,163.734034 L304.941156,197.734422 L315.743113,224.852169 L339.943609,216.043909 L319.046114,158.628511 L295.808788,123.879761 Z" id="路径" fill="#A0D468" transform="translate(204.511591, 196.865552) rotate(20.000000) translate(-204.511591, -196.865552) "></path>
            <polygon id="路径" fill="#FC6E51" transform="translate(208.455214, 186.619771) rotate(20.000000) translate(-208.455214, -186.619771) " points="352.995233 153.320988 313.63507 95.805611 264.10509 67.4920189 209.274853 55.8062259 153.798425 67.0178315 122.902582 78.2629986 94.1970794 101.927036 69.2142513 133.258654 50.1625918 177.045447 42.5022892 216.98264 50.6632554 271.87504 67.2451119 317.433316 92.2685001 308.325548 69.4222788 239.038728 68.6042095 209.557921 78.4922598 170.504265 97.2180036 140.136903 126.779265 112.306702 166.226087 94.6452107 203.547331 88.1353853 257.067598 97.5022572 309.058686 133.857883 348.113008 215.205762 374.408138 205.635118"></polygon>
            <path d="M167.230479,140.547382 C122.960918,156.660185 100.135355,205.609762 116.248158,249.879324 L130.828756,289.939188 L144.219448,285.065374 L129.63885,245.00551 C120.95694,221.152159 125.660135,194.479009 141.976789,175.033579 C158.293442,155.588148 183.744665,146.32466 208.743229,150.732582 C233.741792,155.140503 254.489819,172.550165 263.171729,196.403517 L277.752327,236.463381 L291.105615,231.603182 L276.525017,191.543318 C268.798552,170.284153 252.941009,152.966513 232.44284,143.402236 C211.944671,133.837958 188.486034,132.810991 167.230479,140.547382 Z" id="路径" fill="#AC92EB" transform="translate(201.093126, 212.672315) rotate(20.000000) translate(-201.093126, -212.672315) "></path>
            <path d="M160.763274,114.110849 C101.744078,135.59208 71.3135443,200.850569 92.7947749,259.869765 L107.375373,299.929629 L120.728661,295.06943 L106.148063,255.009566 C97.1161492,230.208974 98.3069094,202.836131 109.458355,178.913547 C126.479065,142.453811 163.781416,119.832066 203.979935,121.591608 C244.178454,123.35115 279.361561,149.145678 293.131498,186.953161 L307.712096,227.013025 L321.065384,222.152826 L306.484786,182.092962 C285.008874,123.088369 219.775379,92.6555881 160.763274,114.110849 Z" id="路径" fill="#4FC2E9" transform="translate(203.485467, 203.582450) rotate(20.000000) translate(-203.485467, -203.582450) "></path>
            <path d="M154.29103,87.6932143 C80.5221993,114.542873 42.4866954,196.110274 69.3363537,269.879105 L83.9169517,309.938968 L97.2702396,305.078769 L82.6896416,265.018905 C68.0230976,224.724389 74.5194344,179.76176 99.9918119,145.266636 C125.46419,110.771512 166.524512,91.332111 209.350782,93.4922519 C260.747867,96.0033403 305.615492,129.119691 323.161036,177.494475 L337.741634,217.554339 L351.132326,212.680526 L336.551728,172.620662 C323.653354,137.182653 297.200845,108.322911 263.017397,92.3945575 C228.83395,76.4662035 189.721807,74.774989 154.29103,87.6932143 Z" id="路径" fill="#FFCE54" transform="translate(205.928876, 194.516321) rotate(20.000000) translate(-205.928876, -194.516321) "></path>
            <path d="M147.816998,61.2484832 C105.302278,76.7113367 70.6744028,108.434503 51.5554159,149.435303 C32.436429,190.436103 30.3934428,237.353853 45.8761449,279.861348 L60.456743,319.921212 L73.8100309,315.061013 L59.2294329,275.001149 C41.3331259,225.745245 49.2902373,170.800155 80.4246552,128.644849 C111.559073,86.4895421 161.734054,62.7250769 214.074897,65.3438473 C276.875716,68.442285 331.684458,108.923158 353.113979,168.035921 L367.694577,208.095785 L381.010461,203.2492 L366.429863,163.189336 C350.958192,120.68127 319.233937,86.0603213 278.236072,66.9427029 C237.238207,47.8250845 190.325064,45.7768125 147.816998,61.2484832 Z" id="路径" fill="#ED5564" transform="translate(208.294558, 185.441712) rotate(20.000000) translate(-208.294558, -185.441712) "></path>
        </g>
        <path d="M452.828222,278.156777 C458.584562,286.20877 462.142911,296.168173 462.142911,307.108529 C462.142911,333.396719 442.361006,354.793767 418.057163,354.793767 C412.666106,354.793767 407.39471,353.731067 402.425617,351.67379 C391.026302,362.423405 376.547283,368.418121 361.375488,368.418121 C346.222587,368.418121 331.724674,362.423405 320.325359,351.67379 C315.356265,353.731067 310.084869,354.793767 304.693812,354.793767 C280.389969,354.793767 260.608065,333.396719 260.608065,307.108529 C260.608065,280.820338 280.389969,259.423291 304.693812,259.423291 C306.784736,259.423291 308.850468,259.579971 310.909903,259.900143 C311.117735,259.586783 311.369654,259.314296 311.583785,259.01456 C311.262589,256.909598 310.991776,254.797823 310.991776,252.611114 C310.991776,231.677294 326.736686,214.653664 346.071435,214.653664 C347.022428,214.653664 347.967123,214.694537 348.899221,214.776284 C357.999779,202.493929 371.729341,195.198087 386.567344,195.198087 C401.411645,195.198087 415.12861,202.487117 424.235466,214.776284 C425.167565,214.694537 426.105961,214.653664 427.050656,214.653664 C446.398001,214.653664 462.142911,231.677294 462.142911,252.611114 C462.142911,262.468334 458.565668,271.385473 452.828222,278.156777 Z" id="路径" fill="#C4DAF6" fill-rule="nonzero"></path>
        <path d="M331.201466,344.34798 C340.097626,354.025856 345.596894,365.996292 345.596894,379.145758 C345.596894,410.742141 315.024859,436.459746 277.464375,436.459746 C269.132741,436.459746 260.986038,435.182463 253.30653,432.709774 C235.689407,445.629985 213.312741,452.835172 189.865421,452.835172 C166.447301,452.835172 144.041436,445.629985 126.424313,432.709774 C118.744805,435.182463 110.598102,436.459746 102.266468,436.459746 C64.7059837,436.459746 34.133949,410.742141 34.133949,379.145758 C34.133949,347.549376 64.7059837,321.83177 102.266468,321.83177 C105.497896,321.83177 108.690391,322.020088 111.873153,322.40491 C112.19435,322.028275 112.583678,321.700767 112.914608,321.340508 C112.418214,318.810504 111.999685,316.272313 111.999685,313.644058 C111.999685,288.483217 136.332728,268.022123 166.213704,268.022123 C167.68342,268.022123 169.143402,268.071249 170.583918,268.169502 C184.648417,253.407056 205.86683,244.638016 228.79829,244.638016 C251.739482,244.638016 272.938429,253.398869 287.012661,268.169502 C288.453177,268.071249 289.903426,268.022123 291.363409,268.022123 C321.263851,268.022123 345.596894,288.483217 345.596894,313.644058 C345.596894,325.491678 340.068427,336.209394 331.201466,344.34798 Z" id="路径" fill="#9FEEF9" fill-rule="nonzero"></path>
    </g>
</svg>